<svg width="2631" height="1687" xmlns="http://www.w3.org/2000/svg" xmlns:xlink="http://www.w3.org/1999/xlink" overflow="hidden"><defs><clipPath id="clip0"><rect x="105" y="320" width="2631" height="1687"/></clipPath><linearGradient x1="1309.59" y1="1678.5" x2="1309.59" y2="-2.50199" gradientUnits="userSpaceOnUse" spreadMethod="reflect" id="fill1"><stop offset="0" stop-color="#A8CBC7" stop-opacity="1"/><stop offset="0.02" stop-color="#A8CBC7" stop-opacity="1"/><stop offset="1" stop-color="#F9DE89" stop-opacity="1"/></linearGradient></defs><g clip-path="url(#clip0)" transform="translate(-105 -320)"><path d="M-3.90941-2.50199 2623.09-2.50199 2623.09 1678.5-3.90941 1678.5-3.90941-2.50199" fill="url(#fill1)" fill-rule="evenodd" transform="matrix(1 0 0 -1 111 2002)"/><path d="M176.18-4.32062C276.144-4.32062 357.68 73.843 357.68 169.674 357.68 265.517 276.144 343.68 176.18 343.68 76.216 343.68-5.32012 265.517-5.32012 169.674-5.32012 73.843 76.216-4.32062 176.18-4.32062" fill="#FFF1FA" fill-rule="evenodd" fill-opacity="1" transform="matrix(1 0 0 -1 1825 926)"/><path d="M83.497 1678.5 129.651 1678.5C129.651 1678.5 108.458 1321.36 94.7619 1258.32 81.0673 1195.28 78.4732 1046.1 85.9096 768.73 91.5377 558.815 164.826 172.837 200.141-2.50199L27.6326-2.50199C28.776 91.5814 28.0807 236 16.201 335.873-2.78108 495.421-9.77545 976.753 5.38644 1149.06 20.5473 1321.36 83.497 1678.5 83.497 1678.5" fill="#F6F2B8" fill-rule="evenodd" fill-opacity="1" transform="matrix(1 0 0 -1 966 2002)"/><path d="M-3.15205 107.686C-3.15205 107.686 65.7064 161.697 142.401 268.21 219.093 374.733 209.155 414.571 209.155 414.571L222.571 410.752C222.571 410.752 217.37 335.106 161.081 252.189 185.485 270.277 230.02 300.839 271.54 316.472 332.821 339.554 352.52 369.981 352.52 369.981L367.848 365.784C367.848 365.784 299.444 299.161 251.294 276.079 215.343 258.851 160.36 223.966 124.645 183.237 123.547 180.939 44.0692 56.3807 35.0637-4.42984L-3.15205 107.686" fill="#F6F2B8" fill-rule="evenodd" fill-opacity="1" transform="matrix(1 0 0 -1 984 874)"/><path d="M112.598 1678.5 169.297 1678.5C169.297 1678.5 156.091 1110.16 169.297 769.764 178.71 527.297 150.154 178.29 132.934-2.50199L-4.84575-2.50199C71.7459 201.004 92.4623 636.215 96.6669 889.534 100.882 1142.86 112.598 1678.5 112.598 1678.5" fill="#F6F2B8" fill-rule="evenodd" fill-opacity="1" transform="matrix(1 0 0 -1 1642 2002)"/><path d="M2623.09 729.134 2623.09 724.174C2610.58 723.809 2597.78 721.18 2585.04 715.909 2561.61 706.21 2538.38 687.549 2517.58 657.606 2499.45 631.51 2483.2 596.896 2470.28 552.251 2428.36 407.342 2387.85 417.08 2256.53 448.638 2225.91 455.992 2190.27 464.553 2148.34 472.6 2019.79 497.277 1962.78 421.776 1883.09 316.21 1828.27 243.608 1762.81 156.909 1656.25 78.4978 1524.06-18.7805 1432.58-15.009 1368 27.9467 1303.68 70.7346 1266.51 152.381 1242.31 211.504 1218.5 269.692 1180.65 314.35 1116.62 335.875 1052.24 357.505 961.348 355.898 831.644 321.378 708.229 288.539 644.451 399.064 583.011 505.555 560.872 543.92 539.035 581.767 514.869 611.985 463.712 675.959 401.732 705.662 302.746 632.751 159.262 527.059 59.3305 523.561-3.90941 545.107L-3.90941 550.433C57.8711 528.751 156.587 531.335 299.614 636.686 401.884 712.018 466.004 681.226 518.97 614.992 543.344 584.51 565.276 546.494 587.515 507.961 647.992 403.14 710.77 294.348 830.271 326.147 961.077 360.961 1052.98 362.506 1118.31 340.55 1184 318.468 1222.77 272.781 1247.11 213.311 1271.07 154.786 1307.82 74.0121 1370.92 32.0228 1433.77-9.78791 1523.2-13.1705 1653.12 82.4266 1759.06 160.386 1824.28 246.781 1878.9 319.119 1959.74 426.188 2017.56 502.761 2149.35 477.464 2191.29 469.417 2227.05 460.824 2257.78 453.439 2385.38 422.785 2424.73 413.319 2465.31 553.564 2478.4 598.785 2494.88 633.874 2513.28 660.36 2534.67 691.156 2558.69 710.401 2583 720.466 2596.41 726.015 2609.9 728.773 2623.09 729.134" fill="#FFCB82" fill-rule="evenodd" fill-opacity="1" transform="matrix(1 0 0 -1 111 1947)"/><path d="M111.109 1678.5 167.486 1678.5C167.486 1678.5 154.356 1110.16 167.486 769.764 176.846 527.297 148.452 178.29 131.33-2.50199L-5.66707-2.50199C70.4894 201.004 91.088 636.215 95.2692 889.534 99.4604 1142.86 111.109 1678.5 111.109 1678.5" fill="#F9DE89" fill-rule="evenodd" fill-opacity="1" transform="matrix(1 0 0 -1 1928 2002)"/><path d="M2623.09 695.415 2623.09-0.585395-3.90941-0.585395-3.90941 512.6C30.9505 521.263 69.7671 536.091 111.316 560.21 277.691 656.819 413.985 699.705 528.634 531.25 643.284 362.799 757.119 369.099 851.254 421.602 945.389 474.105 1090.15 479.597 1168.69 266.193 1247.21 52.7894 1444.52-0.522275 1654.68 135.986 1864.84 272.494 1916.13 527.249 2127.54 430.003 2338.95 332.757 2377.11 448.904 2434.03 543.409 2470.75 604.376 2530.25 687.156 2623.09 695.415" fill="#F9DE89" fill-rule="evenodd" fill-opacity="1" transform="matrix(1 0 0 -1 111 2002)"/><path d="M83.7934 1678.5 129.719 1678.5C129.719 1678.5 108.63 1321.36 95.0025 1258.32 81.3758 1195.28 78.7945 1046.1 86.1941 768.73 91.7947 558.815 164.721 172.837 199.865-2.50199L28.2056-2.50199C29.3434 91.5814 28.6516 236 16.8296 335.873-2.05638 495.421-9.01612 976.753 6.06891 1149.06 21.1547 1321.36 83.7934 1678.5 83.7934 1678.5" fill="#F9DE89" fill-rule="evenodd" fill-opacity="1" transform="matrix(1 0 0 -1 728 2002)"/><path d="M225.479 183.613 188.74 170.004C188.74 170.004 181.688 141.61 149.951 162.611 118.203 183.613 36.0956 319.071 12.0192 331.672L-5.49965 314.871C-5.49965 314.871 42.6636 294.92 100.684 187.813 158.705 80.706 185.219-4.32827 185.219-4.32827 185.219-4.32827 226.572 127.959 225.479 183.613" fill="#F9DE89" fill-rule="evenodd" fill-opacity="1" transform="matrix(1 0 0 -1 1843 860)"/><path d="M0.577383 185.373C-1.12988 249.515 81.1787 341.362 125.278 380.798 252.162 494.266 236.851 574.117 236.851 574.117L280.604 578.32C280.604 578.32 230.286 464.848 186.532 393.406 142.779 321.959 61.1756 209.424 47.2837 51.3548 33.393-106.717-14.7361 126.536 0.577383 185.373" fill="#F9DE89" fill-rule="evenodd" fill-opacity="1" transform="matrix(1 0 0 -1 775 1406)"/><path d="M-4.05948 77.4133 228.94 77.4133C214.55-22.7335 17.6047-43.2964-4.05948 77.4133" fill="#C9B252" fill-rule="evenodd" fill-opacity="1" transform="matrix(1 0 0 -1 1358 404)"/><path d="M1178.24 354.935-1.75616 354.935-1.75616 38.8837C43.7474-53.383 277.711 62.5117 273.07 170.548 312.686-82.152 719.952-62.364 650.648 231.402 719.17 116.514 926.011 161.588 922.067 304.846 922.067 304.846 957.091 239.795 1077.48 258.681 1144.09 269.131 1169.14 315.548 1178.24 354.935" fill="#C9B252" fill-rule="evenodd" fill-opacity="1" transform="matrix(1 0 0 -1 111 681)"/><path d="M196.84 260.736-1.73674 260.736-1.73674 30.9705C140.826 12.1896 185.085 191.116 196.84 260.736ZM660.971 260.736 306.668 260.736C273.979 212.558 296.902 114.121 361.882 101.537 440.448 86.3231 458.324 187.77 458.324 187.77 458.324 187.77 388.595-6.8749 538.497-5.25475 688.4-3.64471 653.157 99.6537 653.157 99.6537L656.932 97.5706C656.52 101.695 656.012 105.882 655.394 110.133L632.645 127.272 668.877 256.822C668.877 256.822 665.928 258.295 660.971 260.736ZM1165.26 260.736 976.686 260.736C993.95 190.769 1151.41 169.547 1165.26 260.736" fill="#ECD161" fill-rule="evenodd" fill-opacity="1" transform="matrix(1 0 0 -1 111 587)"/><path d="M-1.91955 108.295C-1.91955 108.295 66.9402 162.424 143.635 269.199 220.33 375.963 210.392 415.905 210.392 415.905L223.802 412.067C223.802 412.067 218.607 336.242 162.315 253.13 186.722 271.26 231.252 301.895 272.775 317.575 334.059 340.711 353.758 371.21 353.758 371.21L369.081 367.003C369.081 367.003 300.681 300.223 252.527 277.086 216.574 259.808 161.593 224.84 125.879 184.015 124.782 181.712 45.3016 56.8591 36.2967-4.09496L-1.91955 108.295" fill="#C9B252" fill-rule="evenodd" fill-opacity="1" transform="matrix(1 0 0 -1 570 963)"/><path d="M299.116 1678.5 350.1 1678.5C349.721 1651.83 349.39 1616.82 349.428 1577.4 357.334 1585.26 366.87 1594.83 377.316 1605.51 392.174 1620.7 408.87 1638.15 425.308 1656.09 432.907 1664.38 439.631 1671.83 445.571 1678.5L473.944 1678.5C449.498 1648.32 416.062 1605.48 396.854 1574.13 364.078 1520.64 350.903 1454.57 350.859 1454.35 352.645 1379.04 356.392 1301.89 363.687 1242.15 384.733 1069.85 382.377 811.396 401.039 664.309 414.624 557.218 439.523 189.584 452.062-2.50199L284.318-2.50199C292.055 180.99 306.574 578.767 295.296 750.464 293.153 783.101 291.301 813.118 289.702 840.613L289.702 840.617C265.276 936.03 165.29 1054.09 100.167 1113.96 35.0419 1173.83-1.05611 1243.2-1.05611 1243.2L6.60368 1256.86C6.60368 1256.86 120.662 1147.55 189.78 1068.07 217.9 1035.75 264.534 1021.75 282.603 997.09 281.381 1033.58 279.602 1078.25 279.602 1078.25L299.116 1678.5" fill="#C9B252" fill-rule="evenodd" fill-opacity="1" transform="matrix(1 0 0 -1 228 2002)"/><path d="M130.54 1678.5 237.934 1678.5C228.849 1565.06 216.131 1370.55 212.929 1140.16 233.959 1173.38 266.337 1211.35 316.212 1249.81 324.055 1255.86 331.72 1261.73 339.22 1267.44 339.358 1268.64 347.374 1336.66 399.896 1390.07 405.429 1395.7 410.272 1401.6 414.52 1407.64 413.918 1423.6 407.786 1479.91 352.286 1509.02L357.753 1519.53C357.753 1519.53 414.769 1459.51 421.26 1437.77 423.171 1435.53 425.545 1433.24 428.212 1431.66 448.827 1477.07 443.288 1522.39 443.288 1522.39L465.93 1525.18C465.93 1525.18 461.701 1440.5 425.602 1400.05 397.76 1368.85 385.538 1320.16 381.403 1299.52 486.48 1379.65 547.966 1432.34 547.506 1532.39L588.055 1534.08C588.055 1534.08 574.463 1495.07 552.711 1449.16 568.12 1451.02 597.672 1456.53 604.543 1481.97L625.054 1483.02C625.054 1483.02 574.168 1433.01 537.568 1418.85 516.47 1378.89 490.405 1338.94 462.621 1318.28 394.803 1267.85 211.087 1070.94 213.088 898.859 215.758 601.523 219.07 299.29 278.79-2.50199L13.536-2.50199C18.7676 167.415 33.525 563.743 63.744 831.409 82.4798 997.359 100.224 1226.07 113.679 1420.28 110.224 1506.15 54.7789 1577.08 21.9633 1628.56 8.4432 1649.77 1.98142 1666.34-0.946348 1678.5L26.0743 1678.5C31.2944 1659.78 42.9813 1636.45 69.0005 1620.16 90.2742 1606.83 108.811 1583.55 123.122 1561.11 125.949 1604.68 128.441 1644.36 130.54 1678.5" fill="#B79C3B" fill-rule="evenodd" fill-opacity="1" transform="matrix(1 0 0 -1 116 2002)"/><path d="M210.221 454.885C105.476 399.04 49.0347 412.78 18.7193 443.184L18.3496 436.729C50.8849 408.05 108.519 396.391 210.606 448.272 210.478 450.48 210.346 452.677 210.221 454.885ZM213.162 407.377C222.264 271.781 237.698 135.786 264.548-0.115194L-0.452183-0.115194C2.45548 94.4907 8.31261 259.239 18.1345 432.923 45.2652 400.733 80.1619 375.018 123.359 372.074 165.607 369.194 194.035 385.142 213.162 407.377" fill="#9B8533" fill-rule="evenodd" fill-opacity="1" transform="matrix(1 0 0 -1 130 2002)"/><path d="M219.94 4.94781C186.661 50.0906 139.426 34.7068 111.645 19.4491L111.211 13.3228C168.45 33.3721 201.028 19.1444 219.527-5.1503ZM131.182 315.85 238.63 315.85C233.396 250.511 226.956 158.261 221.823 47.7683 196.155 67.0297 162.117 65.8003 132.081 58.4024L132.067 58.3919 131.76 58.3183 130.841 58.0873 130.534 58.0137 130.384 57.9718 130.229 57.9296 129.925 57.8559 129.009 57.6145 128.706 57.5408 128.697 57.5304 128.401 57.4567 128.097 57.3726 127.795 57.2885 127.492 57.2153 127.189 57.1312 127.021 57.0889 126.887 57.0471 126.585 56.963 125.984 56.7948 125.682 56.7107 125.38 56.6266 125.353 56.6266 125.081 56.5425 124.482 56.3746 124.184 56.2905 123.884 56.2064 123.586 56.1223 123.289 56.0278 122.99 55.9437 122.694 55.8596 122.395 55.765 121.807 55.5968 121.803 55.5968 121.507 55.5022 121.212 55.4181 120.917 55.3236 120.622 55.2395 120.329 55.1449 120.035 55.0608 119.742 54.9662 119.447 54.8717 119.155 54.7876 118.571 54.5984 118.28 54.5143 117.988 54.4198 117.949 54.4093 116.829 54.052 116.539 53.9577 116.251 53.8628 114.529 53.2958 114.004 53.1171 114.313 57.5722C110.859 143.476 55.3838 214.416 22.5509 265.905 9.02406 287.121 2.55866 303.692-0.370575 315.85L26.6641 315.85C31.8864 297.125 43.5792 273.797 69.6114 257.499 90.8959 244.175 109.441 220.889 123.76 198.444 126.59 242.02 129.082 281.709 131.182 315.85" fill="#9B8533" fill-rule="evenodd" fill-opacity="1" transform="matrix(1 0 0 -1 116 642)"/><path d="M1005.5 217.663-1.49854 217.663-1.49854 59.5056C127.421-69.5011 403.019 21.8065 399.914 94.1698 399.894-22.3825 721.77-38.4599 693.01 118.123 738.854 41.181 836.753 88.1629 834.114 184.112 834.114 184.112 857.545 140.543 938.088 153.197 982.648 160.19 999.412 191.284 1005.5 217.663" fill="#9B8533" fill-rule="evenodd" fill-opacity="1" transform="matrix(1 0 0 -1 111 544)"/><path d="M328.878 143.539C271.978-24.1207 67.8735-42.8831-1.21431 50.2599L-1.21431 143.539ZM510.794 143.539 328.878 143.539C356.301 79.2251 490.843 67.4631 510.794 143.539ZM814.786 143.539 677.821 143.539C684.646 126.377 705.892 95.6437 749.05 98.7518 792.21 101.859 813.927 126.984 814.786 143.539" fill="#B79C3B" fill-rule="evenodd" fill-opacity="1" transform="matrix(1 0 0 -1 111 470)"/><path d="M2.39423 39.9746C2.39423 39.9746-13.9848-0.134986 18.159-4.85478 50.3018-9.57493 56.8965 22.8538 56.8965 22.8538 56.8965 22.8538 63.2357-3.75933 93.0054-0.197955 122.776 3.37355 148.191 37.9936 116.851 68.9476 85.5108 99.8908 16.0211 78.1661 2.39423 39.9746" fill="#B79C3B" fill-rule="evenodd" fill-opacity="1" transform="matrix(1 0 0 -1 644 485)"/><path d="M-6.43485 108.467C-6.43485 108.467 31.2217 202.207 85.3365 236.091 113.324 253.612 125.894 278.689 131.506 298.816L160.566 298.816C157.413 285.741 150.465 267.937 135.931 245.13 100.628 189.784 40.9957 113.533 37.2859 21.2019 33.5653-71.1188-6.43485 108.467-6.43485 108.467" fill="#E59323" fill-rule="evenodd" fill-opacity="1" transform="matrix(1 0 0 -1 2189 625)"/><path d="M62.6461 1678.5-6.33204 1678.5C4.98953 1536.75 65.6757 1268.43 62.7195 961.687 59.6687 644.156 90.9502 320.575 27.1297-2.50199L217.668-2.50199C212.448 167.415 196.776 572.095 167.549 831.409 138.323 1090.73 75.0265 1476.89 62.6461 1678.5" fill="#C9B252" fill-rule="evenodd" fill-opacity="1" transform="matrix(1 0 0 -1 2131 2002)"/><path d="M-6.36314 231.681 972.637 231.681 972.637-0.140891C749.744-33.3125 712.162 103.749 712.162 103.749 712.162 103.749 670.556-30.8725 412.204 0.67953 153.852 32.2312 193.262 192.094 193.262 192.094 193.262 192.094 164.792 160.542 81.6002 171.059 29.3372 177.664 4.72417 209.164-6.36314 231.681" fill="#C9B252" fill-rule="evenodd" fill-opacity="1" transform="matrix(1 0 0 -1 1759 558)"/><path d="M803.657 92.415 951.606 92.415 951.606-1.14147C863.837-13.7637 820.82 53.7187 803.657 92.415ZM425.321 92.415 678.148 92.415C665.568 59.7828 634.069 11.5226 557.473 9.03176 474.613 6.34126 438.963 60.8546 425.321 92.415ZM158.474 92.415 415.579 92.415C408.863 59.0366 382.84-1.46745 282.407-5.41891 218.024-7.95166 186.578 18.8581 171.349 48.3901 171.79 51.2593 172.19 52.8567 172.19 52.8567 172.19 52.8567 171.517 52.1105 170.088 50.9019 163.151 65.2897 159.904 80.1292 158.474 92.415ZM-6.39488 92.415 146.146 92.415C134.775 75.9149 112.588 57.6911 69.6026 54.3599 22.7807 50.7127 2.44396 72.8671-6.39488 92.415" fill="#ECD161" fill-rule="evenodd" fill-opacity="1" transform="matrix(1 0 0 -1 1780 419)"/><path d="M322.078 314.531C322.078 314.531 315.521 236.763 267.428 272.495 252.97 283.241 234.348 299.696 213.837 318.133 213.595 318.373 153.185 378.215 126.463 430.131 99.689 482.152 99.689 482.152 99.689 482.152L83.2904 472.693C83.2904 472.693 116.874 428.439 143.953 379.865 116.507 402.88 89.8895 422.753 68.529 432.232 11.6962 457.455 2.95674 455.353 2.95674 455.353L-5.78269 428.029C-5.78269 428.029 102.196 434.503 204.048 240.967 305.89 47.4294 306.844-2.84817 306.844-2.84817 306.844-2.84817 339.557 207.336 322.078 314.531" fill="#C9B252" fill-rule="evenodd" fill-opacity="1" transform="matrix(1 0 0 -1 1890 1315)"/><path d="M408.471 108.297C408.471 108.297 319.424 185.55 255.925 272.331 192.425 359.101 140.397 406.923 140.397 406.923L114.409 402.717C114.409 402.717 171.773 330.962 223.393 253.109 196.039 271.237 146.248 301.867 100.406 317.545 32.7259 340.678 9.94179 371.172 9.94179 371.172L-6.52937 366.966C-6.52937 366.966 70.8465 300.195 124.241 277.063 164.105 259.786 225.451 224.824 266.125 184.005 267.417 181.702 359.457 56.868 371.989-4.07701L408.471 108.297" fill="#B79C3B" fill-rule="evenodd" fill-opacity="1" transform="matrix(1 0 0 -1 2098 963)"/><path d="M183.125 1678.5 127.609 1678.5C129.229 1651.83 131.165 1616.82 132.911 1577.4 123.948 1585.26 113.133 1594.83 101.276 1605.51 84.412 1620.7 65.4438 1638.15 46.7278 1656.09 38.0799 1664.38 30.4213 1671.83 23.6565 1678.5L-7.24203 1678.5C20.7422 1648.32 59.0891 1605.48 81.4135 1574.13 119.519 1520.64 136.846 1454.57 136.909 1454.35 138.36 1379.04 137.772 1301.89 132.522 1242.15 117.394 1069.85 131.628 811.396 117.961 664.309 107.999 557.218 97.4993 189.584 92.523-2.50199L275.168-2.50199C258.451 180.99 224.681 578.767 229.204 750.464 230.056 783.101 230.719 813.118 231.214 840.613L231.224 840.617C249.603 919.308 323.246 1013.4 386.758 1077.55L386.758 1128.02C366.559 1107.6 346.801 1087 329.748 1068.07 300.586 1035.75 250.445 1021.75 231.877 997.09 231.561 1033.58 231.487 1078.25 231.487 1078.25L183.125 1678.5" fill="#B79C3B" fill-rule="evenodd" fill-opacity="1" transform="matrix(1 0 0 -1 2344 2002)"/><path d="M4.46905 390.25C32.69 374.924 76.1327 373.999 141.422 418.955L141.925 411.361C107.132 386.958 59.0449 366.73 4.15475 381.099ZM3.8192 371.706C-0.740942 240.58-4.68291 97.6103-7.1988-0.0448021L174.801-0.0448021C166.792 88.2384 154.862 226.064 145.133 364.511 96.4283 299.716 41.8524 331.872 3.8192 371.706" fill="#9B8533" fill-rule="evenodd" fill-opacity="1" transform="matrix(1 0 0 -1 2444 2002)"/><path d="M183.403 136.498 127.891 136.498C129.511 109.814 131.446 74.7716 133.192 35.3233 124.23 43.1879 113.416 52.7657 101.56 63.4584 84.6971 78.6614 65.7304 96.1252 47.0158 114.072 38.3685 122.368 30.7105 129.822 23.9463 136.498L-6.94992 136.498C21.0326 106.303 59.3766 63.427 81.6989 32.0535 90.3671 19.8783 97.9518 7.05166 104.516-5.502 108.724 25.9975 133.256 12.3402 133.256 12.3402 138.137 45.0593 169.496 45.3537 191.05 41.4739L183.403 136.498" fill="#9B8533" fill-rule="evenodd" fill-opacity="1" transform="matrix(1 0 0 -1 2344 463)"/><path d="M583.37 117.478C581.574 89.0556 565.108 47.8008 489.554 31.3408 369.233 5.13061 341.888 94.2449 341.888 94.2449 341.888 94.2449 340.943-0.426021 236.878-5.35353 132.813-10.281 130.775 94.2449 130.775 94.2449 86.6503 53.0218 7.86088 57.9597-6.63037 117.478L583.37 117.478" fill="#9B8533" fill-rule="evenodd" fill-opacity="1" transform="matrix(1 0 0 -1 2045 444)"/><path d="M-6.33952 55.581C-6.33952 55.581 1.16032-18.7858 42.6145-3.45526 84.0582 11.8753 30.6442 84.9269-6.33952 55.581" fill="#B79C3B" fill-rule="evenodd" fill-opacity="1" transform="matrix(1 0 0 -1 2206 406)"/><path d="M-5.7883 22.5496C-5.7883 22.5496-13.2389-11.6573 19.5259-4.68637 52.2907 2.29519 15.0599 53.4299-5.7883 22.5496" fill="#B79C3B" fill-rule="evenodd" fill-opacity="1" transform="matrix(1 0 0 -1 2280 395)"/><path d="M-5.48329 27.2895 115.517 27.2895C110.699 12.9679 97.3047-3.18187 61.7719-5.45134 16.991-8.31993 0.489927 13.2833-5.48329 27.2895" fill="#9B8533" fill-rule="evenodd" fill-opacity="1" transform="matrix(1 0 0 -1 1894 354)"/><path d="M7.90854-5.09554C13.9671-5.09554 18.9082-0.381227 18.9082 5.40463 18.9082 11.1901 13.9671 15.9044 7.90854 15.9044 1.84893 15.9044-3.09219 11.1901-3.09219 5.40463-3.09219-0.381227 1.84893-5.09554 7.90854-5.09554" fill="#B79C3B" fill-rule="evenodd" fill-opacity="1" transform="matrix(1 0 0 -1 1133 505)"/><path d="M5.59954 103.363C5.59954 103.363 76.4615 98.4381 95.2247 54.8538 113.998 11.2692 121.706-3.57936 121.706-3.57936 121.706-3.57936 18.9083-6.55973 3.13046 30.3454-12.6481 67.2611 5.59954 103.363 5.59954 103.363" fill="#B79C3B" fill-rule="evenodd" fill-opacity="1" transform="matrix(1 0 0 -1 397 1443)"/><path d="M119.068 99.9632C119.068 99.9632 53.8042 118.827 29.8707 66.4309 5.94768 14.0341-4.93279-2.7313-4.93279-2.7313-4.93279-2.7313 44.02-2.73022 71.2112 14.0352 98.4027 30.802 119.068 99.9632 119.068 99.9632" fill="#B79C3B" fill-rule="evenodd" fill-opacity="1" transform="matrix(1 0 0 -1 2057 1202)"/><path d="M-1.75395 70.0275C-1.75395 70.0275 53.3561 85.9755 70.5321 48.941 87.7066 11.9076 87.245-2.55829 87.245-2.55829 87.245-2.55829 52.1136-2.55829 32.5966 9.29249 13.0785 21.1444-1.75395 70.0275-1.75395 70.0275" fill="#B79C3B" fill-rule="evenodd" fill-opacity="1" transform="matrix(1 0 0 -1 651 1182)"/><path d="M-2.84189-1.56773C-2.84189-1.56773-20.2533 50.7405 17.9603 67.6929 56.1635 84.6482 71.1966 84.4326 71.1966 84.4326 71.1966 84.4326 71.7283 50.9298 59.7209 32.1265 47.7027 13.3336-2.84189-1.56773-2.84189-1.56773" fill="#B79C3B" fill-rule="evenodd" fill-opacity="1" transform="matrix(1 0 0 -1 2373 1445)"/><path d="M3.06272-3.91479C3.06272-3.91479-10.9943 38.6648 19.8644 52.4645 50.7238 66.254 62.8649 66.0853 62.8649 66.0853 62.8649 66.0853 63.297 38.8121 53.5927 23.5162 43.8913 8.22073 3.06272-3.91479 3.06272-3.91479" fill="#B79C3B" fill-rule="evenodd" fill-opacity="1" transform="matrix(1 0 0 -1 124 836)"/><path d="M0.0776556-0.867285C0.0776556-0.867285-17.5571 51.4397 21.1466 68.3916 59.8398 85.3436 75.0658 85.133 75.0658 85.133 75.0658 85.133 75.6046 51.6289 63.4428 32.8261 51.2708 14.0341 0.0776556-0.867285 0.0776556-0.867285" fill="#B79C3B" fill-rule="evenodd" fill-opacity="1" transform="matrix(1 0 0 -1 1476 1809)"/><path d="M10.5446 83.7673C10.5446 83.7673-15.2305 60.793-1.27902 28.8137 12.6725-3.15478 16.016-5.23309 16.016-5.23309 16.016-5.23309 40.4808 24.8255 34.6948 46.3512 28.9088 67.8669 10.5446 83.7673 10.5446 83.7673" fill="#B79C3B" fill-rule="evenodd" fill-opacity="1" transform="matrix(1 0 0 -1 1916 503)"/><path d="M99.7988 86.6389C99.7988 86.6389 28.4549 90.2337 12.5458 45.2315-3.36247 0.219231-5.20101-5.29323-5.20101-5.29323-5.20101-5.29323 33.4166-4.65426 59.2903 13.9379 85.1644 32.5193 99.7988 86.6389 99.7988 86.6389" fill="#B79C3B" fill-rule="evenodd" fill-opacity="1" transform="matrix(1 0 0 -1 1816 487)"/><path d="M0.695027 64.1332C0.695027 64.1332-14.1498 43.702 23.1299 17.8355 60.4082-8.02011 65.7779-4.732 65.7779-4.732 65.7779-4.732 65.8724 35.5441 49.4291 49.7757 32.9862 64.0077 0.695027 64.1332 0.695027 64.1332" fill="#B79C3B" fill-rule="evenodd" fill-opacity="1" transform="matrix(1 0 0 -1 824 584)"/><path d="M21.3911-5.54832C21.3911-5.54832-20.7265 31.7911 4.27814 64.6532 29.2933 97.5262 42.6607 104.452 42.6607 104.452 42.6607 104.452 60.2802 75.5199 59.3095 53.4505 58.3388 31.381 21.3911-5.54832 21.3911-5.54832" fill="#B79C3B" fill-rule="evenodd" fill-opacity="1" transform="matrix(1 0 0 -1 1301 434)"/><path d="M25.6777-5.1412C41.3752-5.1412 54.1764 7.21279 54.1764 22.3588 54.1764 37.5052 41.3752 49.8592 25.6777 49.8592 9.97905 49.8592-2.82364 37.5052-2.82364 22.3588-2.82364 7.21279 9.97905-5.1412 25.6777-5.1412" fill="#B79C3B" fill-rule="evenodd" fill-opacity="1" transform="matrix(1 0 0 -1 1029 520)"/><path d="M18.1549-4.43481C28.6194-4.43481 37.1541 3.42989 37.1541 13.0654 37.1541 22.7009 28.6194 30.5656 18.1549 30.5656 7.69009 30.5656-0.84643 22.7009-0.84643 13.0654-0.84643 3.42989 7.69009-4.43481 18.1549-4.43481" fill="#B79C3B" fill-rule="evenodd" fill-opacity="1" transform="matrix(1 0 0 -1 370 659)"/><path d="M16.3364-4.88254C25.4249-4.88254 32.8368 2.30681 32.8368 11.1178 32.8368 19.9284 25.4249 27.1178 16.3364 27.1178 7.24831 27.1178-0.163564 19.9284-0.163564 11.1178-0.163564 2.30681 7.24831-4.88254 16.3364-4.88254" fill="#9B8533" fill-rule="evenodd" fill-opacity="1" transform="matrix(1 0 0 -1 149 585)"/><path d="M9.99672-5.29375C19.6297-5.29375 27.4913 2.11304 27.4913 11.2061 27.4913 20.289 19.6297 27.7063 9.99672 27.7063 0.353532 27.7063-7.50844 20.289-7.50844 11.2061-7.50844 2.11304 0.353532-5.29375 9.99672-5.29375" fill="#B79C3B" fill-rule="evenodd" fill-opacity="1" transform="matrix(1 0 0 -1 2578 457)"/><path d="M-3.88878-5.63674C-1.95522-5.63674-0.383516-4.06461-0.383516-2.13699-0.383516-0.209001-1.95522 1.36313-3.88878 1.36313-5.81204 1.36313-7.38374-0.209001-7.38374-2.13699-7.38374-4.06461-5.81204-5.63674-3.88878-5.63674" fill="#B79C3B" fill-rule="evenodd" fill-opacity="1" transform="matrix(1 0 0 -1 2628 395)"/><path d="M1.92732-5.41601C6.60815-5.41601 10.4323-1.60144 10.4323 3.08428 10.4323 7.76963 6.60815 11.5842 1.92732 11.5842-2.75351 11.5842-6.56752 7.76963-6.56752 3.08428-6.56752-1.60144-2.75351-5.41601 1.92732-5.41601" fill="#B79C3B" fill-rule="evenodd" fill-opacity="1" transform="matrix(1 0 0 -1 2376 437)"/><path d="M3.95017-5.42119C9.45395-5.42119 13.9448-1.15661 13.9448 4.07894 13.9448 9.30362 9.45395 13.5787 3.95017 13.5787-1.56461 13.5787-6.05548 9.30362-6.05548 4.07894-6.05548-1.15661-1.56461-5.42119 3.95017-5.42119" fill="#B79C3B" fill-rule="evenodd" fill-opacity="1" transform="matrix(1 0 0 -1 2105 428)"/><path d="M9.2364 0.271435C17.5048 0.271435 24.2365 6.55576 24.2365 14.2714 24.2365 21.9766 17.5048 28.2713 9.2364 28.2713 0.979002 28.2713-5.76373 21.9766-5.76373 14.2714-5.76373 6.55576 0.979002 0.271435 9.2364 0.271435" fill="#B79C3B" fill-rule="evenodd" fill-opacity="1" transform="matrix(1 0 0 -1 2003 1889)"/><path d="M3.36932 0.0750206C8.3226 0.0750206 12.3647 4.11598 12.3647 9.07495 12.3647 14.0234 8.3226 18.0749 3.36932 18.0749-1.58395 18.0749-5.63583 14.0234-5.63583 9.07495-5.63583 4.11598-1.58395 0.0750206 3.36932 0.0750206" fill="#B79C3B" fill-rule="evenodd" fill-opacity="1" transform="matrix(1 0 0 -1 2066 1832)"/><path d="M8.43761 0.136744C14.7726 0.136744 19.9369 5.08185 19.9369 11.1371 19.9369 17.1924 14.7726 22.1371 8.43761 22.1371 2.10299 22.1371-3.06277 17.1924-3.06277 11.1371-3.06277 5.08185 2.10299 0.136744 8.43761 0.136744" fill="#B79C3B" fill-rule="evenodd" fill-opacity="1" transform="matrix(1 0 0 -1 1127 1850)"/><path d="M15.5933-0.841933C24.6825-0.841933 32.0933 6.12282 32.0933 14.6582 32.0933 23.2043 24.6825 30.1587 15.5933 30.1587 6.5052 30.1587-0.907036 23.2043-0.907036 14.6582-0.907036 6.12282 6.5052-0.841933 15.5933-0.841933" fill="#B79C3B" fill-rule="evenodd" fill-opacity="1" transform="matrix(1 0 0 -1 397 1600)"/><path d="M189.216 0.183104-6.37595 0.183104C-6.37595 0.183104 35.2095 67.8556 94.3096 59.4609 128.372 54.6231 164.62 24.6747 189.216 0.183104ZM962.624 281.145 962.624 0.183104 234.458 0.183104C263.173 56.3438 330.973 164.71 428.118 168.592 559.451 173.839 596.666 97.2373 596.666 97.2373 596.666 97.2373 664.518 311.303 871.374 300.81 908.641 298.921 938.564 291.691 962.624 281.145" fill="#B79C3B" fill-rule="evenodd" fill-opacity="1" transform="matrix(1 0 0 -1 1769 2002)"/><path d="M44.3059 0.52555C53.8906 38.9287 73.9626 136.983 26.365 126.787-17.2327 117.444-3.60641 40.2678 6.51374 0.52555ZM79.1171 0.52555 52.022 0.52555C74.8862 28.827 125.056 85.4622 145.831 65.6282 161.851 50.3383 118.096 21.6569 79.1171 0.52555" fill="#B79C3B" fill-rule="evenodd" fill-opacity="1" transform="matrix(1 0 0 -1 1303 2002)"/><path d="M101.456 37.4317C101.456 37.4317 110.217 163.388 63.154 182.282 16.1019 201.175 95.9823 17.4888 95.9823 17.4888 95.9823 17.4888 67.5346 97.261 7.35123 99.3604-52.8321 101.459 97.0751-0.355133 97.0751-0.355133L101.456 37.4317" fill="#B79C3B" fill-rule="evenodd" fill-opacity="1" transform="matrix(1 0 0 -1 2375 1805)"/><path d="M3.92897 21.7393C3.92897 21.7393-20.4333 175.09 28.0012 202.099 76.4346 229.097 29.0598 55.8267 29.0598 55.8267 29.0598 55.8267 73.2108 151.189 101.835 134.809 130.458 118.44 26.0363-0.0448666 26.0363-0.0448666L3.92897 21.7393" fill="#B79C3B" fill-rule="evenodd" fill-opacity="1" transform="matrix(1 0 0 -1 792 1895)"/><path d="M1178.24 0.0231131-1.75616 0.0231131-1.75616 316.732C101.753 376.598 230.65 333.008 226.008 224.747 265.625 477.973 719.952 418.191 650.648 123.813 719.17 238.94 926.011 193.772 922.067 50.2165 922.067 50.2165 957.091 115.402 1077.48 96.4774 1144.09 86.0054 1169.14 39.4924 1178.24 0.0231131" fill="#B79C3B" fill-rule="evenodd" fill-opacity="1" transform="matrix(1 0 0 -1 111 2002)"/><path d="M1995.21 0.508092C2013.41 20.4975 2044.06 41.7489 2085.39 26.4414 2155.44 0.508092 2215.64-9.32852 2270.37 29.5977 2325.09 68.5238 2375.45 114.815 2448.78 46.4308 2498.53 0.0455332 2574.96 2.08621 2623.09 40.0341L2623.09 0.508092ZM1797.34 0.508092C1815.3 17.3518 1840.83 32.596 1873.03 29.5977 1905.76 26.5574 1930.84 13.3539 1948.06 0.508092L1797.34 0.508092ZM771.495 0.508092C790.756 18.2462 837.723 50.5234 896.66 13.8168 904.849 8.72502 912.569 4.31662 919.841 0.508092L771.495 0.508092ZM373.873 0.508092C398.926 10.5554 419.113 26.0732 436.934 35.9101 488.379 64.3156 545.298 75.8883 591.271 20.1293 598.038 11.9232 606.521 5.50554 616.055 0.508092L373.873 0.508092ZM-3.90941 124.494C37.3208 143.715 94.0966 143.441 163.284 76.9406 206.269 35.6261 242.775 12.2282 274.206 0.508092L-3.90941 0.508092-3.90941 124.494" fill="#C9B252" fill-rule="evenodd" fill-opacity="1" transform="matrix(1 0 0 -1 111 2002)"/><path d="M53.909 23.7997C114.759 8.01552 166.037 24.4521 143.476 67.8587 120.913 111.266 53.909 23.7997 53.909 23.7997ZM51.75 54.558C51.75 54.558 69.5254 165.048 21.6649 148.6-26.1956 132.164 10.726 78.8869 51.75 54.558ZM106.621 123.724C161.151 109.582 207.103 124.314 186.884 163.206 166.665 202.109 106.621 123.724 106.621 123.724ZM110.812 147.159C110.812 147.159 126.741 246.179 83.8524 231.436 40.9634 216.704 74.0497 168.973 110.812 147.159ZM164.139 206.118C213.222 179.243 261.55 182.389 252.144 224.933 242.738 267.466 164.139 206.118 164.139 206.118ZM164.87 222.26C164.87 222.26 224.821 304.202 179.587 309.294 134.355 314.398 141.984 257.501 164.87 222.26ZM32.3455 0.144219C66.6764 75.9613 130.849 195.301 220.787 268.245 237.368 306.316 279.844 344.283 301.926 306.611 322.057 272.275 239.75 267.466 223.066 266.856 133.567 194.585 69.5604 75.9613 35.1483 0.144219L32.3455 0.144219" fill="#C9B252" fill-rule="evenodd" fill-opacity="1" transform="matrix(1 0 0 -1 268 2002)"/><path d="M246.045 23.7997C185.196 8.01552 133.916 24.4521 156.484 67.8587 179.042 111.266 246.045 23.7997 246.045 23.7997ZM248.208 54.558C248.208 54.558 230.428 165.048 278.296 148.6 326.153 132.164 289.228 78.8869 248.208 54.558ZM193.335 123.724C138.81 109.582 92.8529 124.314 113.069 163.206 133.296 202.109 193.335 123.724 193.335 123.724ZM189.145 147.159C189.145 147.159 173.214 246.179 216.103 231.436 258.993 216.704 225.912 168.973 189.145 147.159ZM135.816 206.118C86.741 179.243 38.4111 182.389 47.8105 224.933 57.2201 267.466 135.816 206.118 135.816 206.118ZM135.092 222.26C135.092 222.26 75.1364 304.202 120.368 309.294 165.6 314.398 157.976 257.501 135.092 222.26ZM267.616 0.144219C233.285 75.9613 169.107 195.301 79.169 268.245 62.5865 306.316 20.1168 344.283-1.96854 306.611-22.1008 272.275 60.2133 267.466 76.89 266.856 166.388 194.585 230.396 75.9613 264.811 0.144219L267.616 0.144219" fill="#C9B252" fill-rule="evenodd" fill-opacity="1" transform="matrix(1 0 0 -1 1678 2002)"/><path d="M71.9258 0.283912 49.4518 0.283912C10.7339 17.7611-6.49657 46.1014 25.7615 65.619 56.9712 84.5053 68.6851 23.3555 71.9258 0.283912ZM82.0247 13.9337C125.147 14.2072 179.124 38.4567 150.463 72.4546 121.813 106.442 82.0247 13.9337 82.0247 13.9337ZM68.3076 90.9099C11.9296 92.4556-27.6175 119.271 3.35093 150.913 34.3085 182.534 68.3076 90.9099 68.3076 90.9099ZM76.3828 105.054C76.3828 105.054 69.3986 204.965 110.749 186.73 152.099 168.506 114.912 123.719 76.3828 105.054ZM79.9693 0.283912C79.2039 57.6897 72.2716 118.346 53.4582 172.239 59.8341 213.03 44.0616 266.661 4.90322 245.514-30.7843 226.249 36.857 181.052 50.7628 172.187 69.6816 118.388 76.645 57.7215 77.4103 0.283912L79.9693 0.283912" fill="#C9B252" fill-rule="evenodd" fill-opacity="1" transform="matrix(1 0 0 -1 2554 2002)"/><path d="M52.1052 23.729C112.955 7.94472 164.235 24.3814 141.672 67.7882 119.11 111.195 52.1052 23.729 52.1052 23.729ZM49.9451 54.4875C49.9451 54.4875 67.7221 164.978 19.8607 148.53-28.0004 132.094 8.9217 78.8161 49.9451 54.4875ZM104.816 123.654C159.348 109.501 205.302 124.243 185.082 163.136 164.862 202.039 104.816 123.654 104.816 123.654ZM109.009 147.089C109.009 147.089 124.938 246.099 82.0489 231.367 39.1594 216.635 72.2461 168.892 109.009 147.089ZM162.335 206.048C211.419 179.173 259.747 182.319 250.343 224.853 240.936 267.397 162.335 206.048 162.335 206.048ZM163.066 222.19C163.066 222.19 223.019 304.122 177.785 309.225 132.552 314.329 140.181 257.421 163.066 222.19ZM30.5403 0.0733748C64.8717 75.8909 129.046 195.231 218.985 268.176 235.566 306.237 278.043 344.214 300.122 306.542 320.254 272.206 237.948 267.397 221.264 266.776 131.765 194.516 67.7567 75.8909 33.3446 0.0733748L30.5403 0.0733748" fill="#B79C3B" fill-rule="evenodd" fill-opacity="1" transform="matrix(1 0 0 -1 875 1984)"/><path d="M133.615 29.3525C70.8488 34.5517 28.532 66.883 65.159 100.245 101.786 133.618 133.615 29.3525 133.615 29.3525ZM146.58 57.5478C193.768 66.9145 247.391 104.823 208.286 136.028 169.171 167.244 146.58 57.5478 146.58 57.5478ZM119.643 140.617C63.3956 145.269 25.4668 174.243 58.2934 204.143 91.1099 234.043 119.643 140.617 119.643 140.617ZM124.041 164.023C124.041 164.023 144.281 262.322 179.323 234.348 214.375 206.384 166.316 172.411 124.041 164.023ZM94.9099 236.979C39.2505 227.876-5.01894 246.746 18.9372 283.634 42.9038 320.512 94.9099 236.979 94.9099 236.979ZM99.9696 252.398C99.9696 252.398 72.791 349.128 117.092 339.035 161.393 328.942 133.993 277.972 99.9696 252.398ZM145.467 0.0209674C140.176 82.5854 122.33 215.857 63.7943 314.018 61.7577 355.243 35.3557 404.918 1.22724 376.786-29.8883 351.138 45.7066 319.533 61.1592 313.45 119.527 216.077 137.468 83.5326 142.832 0.947147L145.467 0.0209674" fill="#B79C3B" fill-rule="evenodd" fill-opacity="1" transform="matrix(1 0 0 -1 2085 2002)"/><path d="M-3.48742 50.9915C-3.48742 50.9915 44.6735 80.8783 71.7395 49.473 98.8058 18.0572 102.513 3.90492 102.513 3.90492 102.513 3.90492 68.8962-5.29121 46.8114 1.08889 24.7371 7.46935-3.48742 50.9915-3.48742 50.9915" fill="#FBF2E2" fill-rule="evenodd" fill-opacity="1" transform="matrix(1 0 0 -1 481 1581)"/><path d="M-2.84289-4.77454C-2.84289-4.77454-20.4678 47.532 18.227 64.4838 56.9217 81.4356 72.1479 81.225 72.1479 81.225 72.1479 81.225 72.6977 47.7212 60.5249 28.9185 48.3524 10.1267-2.84289-4.77454-2.84289-4.77454" fill="#FBF2E2" fill-rule="evenodd" fill-opacity="1" transform="matrix(1 0 0 -1 2359 622)"/><path d="M-1.17531-4.58452C-1.17531-4.58452-15.4523 38.0015 15.8934 51.7927 47.25 65.5947 59.5773 65.4156 59.5773 65.4156 59.5773 65.4156 60.0199 38.1488 50.1579 22.851 40.3064 7.55281-1.17531-4.58452-1.17531-4.58452" fill="#FBF2E2" fill-rule="evenodd" fill-opacity="1" transform="matrix(1 0 0 -1 938 681)"/><path d="M3.39764-1.60172C6.97569-1.60172 9.89893 1.09816 9.89893 4.39812 9.89893 7.70324 6.97569 10.3983 3.39764 10.3983-0.180403 10.3983-3.1015 7.70324-3.1015 4.39812-3.1015 1.09816-0.180403-1.60172 3.39764-1.60172" fill="#FBF2E2" fill-rule="evenodd" fill-opacity="1" transform="matrix(1 0 0 -1 1157 1378)"/><path d="M10.3563-1.53627C18.07-1.53627 24.3564 4.75308 24.3564 12.4636 24.3564 20.1746 18.07 26.4639 10.3563 26.4639 2.64271 26.4639-3.64411 20.1746-3.64411 12.4636-3.64411 4.75308 2.64271-1.53627 10.3563-1.53627" fill="#FBF2E2" fill-rule="evenodd" fill-opacity="1" transform="matrix(1 0 0 -1 1341 1433)"/><path d="M8.8222-2.96692C15.9775-2.96692 21.8223 2.87241 21.8223 10.0335 21.8223 17.1931 15.9775 23.0336 8.8222 23.0336 1.65657 23.0336-4.17787 17.1931-4.17787 10.0335-4.17787 2.87241 1.65657-2.96692 8.8222-2.96692" fill="#FBF2E2" fill-rule="evenodd" fill-opacity="1" transform="matrix(1 0 0 -1 1516 1078)"/><path d="M8.44111-3.0958C14.2246-3.0958 18.9411 1.39643 18.9411 6.90434 18.9411 12.4133 14.2246 16.9045 8.44111 16.9045 2.65761 16.9045-2.05924 12.4133-2.05924 6.90434-2.05924 1.39643 2.65761-3.0958 8.44111-3.0958" fill="#FBF2E2" fill-rule="evenodd" fill-opacity="1" transform="matrix(1 0 0 -1 791 1014)"/><path d="M0.981211-3.198C5.10675-3.198 8.4811-0.0577083 8.4811 3.80222 8.4811 7.65219 5.10675 10.8024 0.981211 10.8024-3.15493 10.8024-6.51903 7.65219-6.51903 3.80222-6.51903-0.0577083-3.15493-3.198 0.981211-3.198" fill="#FBF2E2" fill-rule="evenodd" fill-opacity="1" transform="matrix(1 0 0 -1 2340 948)"/><path d="M0.241295-2.67912C4.09528-2.67912 7.24667 0.464648 7.24667 4.32056 7.24667 8.17721 4.09528 11.321 0.241295 11.321-3.60204 11.321-6.75343 8.17721-6.75343 4.32056-6.75343 0.464648-3.60204-2.67912 0.241295-2.67912" fill="#FBF2E2" fill-rule="evenodd" fill-opacity="1" transform="matrix(1 0 0 -1 2411 1140)"/><path d="M3.25206-2.11538C5.45538-2.11538 7.25154-0.317702 7.25154 1.88526 7.25154 4.08892 5.45538 5.88488 3.25206 5.88488 1.04809 5.88488-0.749056 4.08892-0.749056 1.88526-0.749056-0.317702 1.04809-2.11538 3.25206-2.11538" fill="#FBF2E2" fill-rule="evenodd" fill-opacity="1" transform="matrix(1 0 0 -1 382 1237)"/><path d="M7.82826-3.61413C12.2339-3.61413 15.8276-0.238857 15.8276 3.88611 15.8276 8.02213 12.2339 11.3864 7.82826 11.3864 3.4222 11.3864-0.172203 8.02213-0.172203 3.88611-0.172203-0.238857 3.4222-3.61413 7.82826-3.61413" fill="#FBF2E2" fill-rule="evenodd" fill-opacity="1" transform="matrix(1 0 0 -1 158 901)"/><path d="M0.047124-5.64286C2.53208-5.64286 4.55247-3.61789 4.55247-1.14272 4.55247 1.34328 2.53208 3.35743 0.047124 3.35743-2.42707 3.35743-4.44746 1.34328-4.44746-1.14272-4.44746-3.61789-2.42707-5.64286 0.047124-5.64286" fill="#FBF2E2" fill-rule="evenodd" fill-opacity="1" transform="matrix(1 0 0 -1 1559 455)"/><path d="M-2.13141-1.4449C0.898026-1.4449 3.36841 1.03002 3.36841 4.0551 3.36841 7.09113 0.898026 9.5551-2.13141 9.5551-5.1612 9.5551-7.63159 7.09113-7.63159 4.0551-7.63159 1.03002-5.1612-1.4449-2.13141-1.4449" fill="#FBF2E2" fill-rule="evenodd" fill-opacity="1" transform="matrix(1 0 0 -1 2657 1455)"/><path d="M-2.62321 39.2339 73.4199-2.09458 154.377 41.9054C154.377 41.9054 98.2422 38.5978 75.8774 19.9049 75.8774 19.9049 35.0284 42.4572-2.62321 39.2339" fill="#FBF2E2" fill-rule="evenodd" fill-opacity="1" transform="matrix(1 0 0 -1 2563 753)"/><path d="M-3.10129 28.527 54.0502-2.46889 114.899 30.5315C114.899 30.5315 72.7082 28.0506 55.8979 14.0304 55.8979 14.0304 25.1971 30.944-3.10129 28.527" fill="#FBF2E2" fill-rule="evenodd" fill-opacity="1" transform="matrix(1 0 0 -1 432 931)"/><path d="M-4.69898 26.5539 51.9656-5.3791 112.301 28.6213C112.301 28.6213 70.4646 26.0557 53.801 11.6158 53.801 11.6158 23.362 29.0452-4.69898 26.5539" fill="#FBF2E2" fill-rule="evenodd" fill-opacity="1" transform="matrix(1 0 0 -1 1643 452)"/></g></svg>