<svg width="491" height="491" xmlns="http://www.w3.org/2000/svg" xmlns:xlink="http://www.w3.org/1999/xlink" overflow="hidden"><defs><clipPath id="clip0"><rect x="2896" y="1104" width="491" height="491"/></clipPath><linearGradient x1="3009.47" y1="1121.05" x2="3271.53" y2="1574.95" gradientUnits="userSpaceOnUse" spreadMethod="reflect" id="fill1"><stop offset="0" stop-color="#38A7F6" stop-opacity="1"/><stop offset="0.77" stop-color="#3086C3" stop-opacity="1"/><stop offset="1" stop-color="#2674AB" stop-opacity="1"/></linearGradient></defs><g clip-path="url(#clip0)" transform="translate(-2896 -1104)"><path d="M3140.5 1160C3218.34 1160 3285.12 1207.35 3313.65 1274.82L3322.4 1303.04 3323.4 1304.09C3333.45 1317.58 3339 1332.42 3339 1348 3339 1363.58 3333.45 1378.42 3323.4 1391.91L3322.4 1392.96 3313.65 1421.18C3285.12 1488.65 3218.34 1536 3140.5 1536 3062.66 1536 2995.88 1488.65 2967.35 1421.18L2958.6 1392.96 2957.6 1391.91C2947.55 1378.42 2942 1363.58 2942 1348 2942 1332.42 2947.55 1317.58 2957.6 1304.09L2958.6 1303.04 2967.35 1274.82C2995.88 1207.35 3062.66 1160 3140.5 1160Z" fill="url(#fill1)" fill-rule="evenodd"/><path d="M2960.27 1330 2961.76 1338.31C2979.01 1385.84 3053.6 1421.59 3143 1421.59 3232.4 1421.59 3306.99 1385.84 3324.24 1338.31L3325.73 1330 3328 1342.71C3328 1400.31 3245.17 1447 3143 1447 3040.83 1447 2958 1400.31 2958 1342.71Z" fill="#FFFFFF" fill-rule="evenodd" fill-opacity="1"/><path d="M3013.94 1240.81C3026.82 1224.07 3046.87 1216.62 3064.41 1220.35L3068.46 1222.22 3049.24 1232.79C3042.36 1238 3035.78 1244.48 3029.92 1252.09 3024.06 1259.7 3019.48 1267.72 3016.21 1275.7L3010.43 1298.9 3007.08 1294.84C2998.99 1278.84 3001.05 1257.55 3013.94 1240.81Z" fill="#FFFFFF" fill-rule="evenodd" fill-opacity="1"/></g></svg>