<svg width="491" height="490" xmlns="http://www.w3.org/2000/svg" xmlns:xlink="http://www.w3.org/1999/xlink" overflow="hidden"><defs><clipPath id="clip0"><rect x="2135" y="1650" width="491" height="490"/></clipPath><linearGradient x1="2381.5" y1="2077" x2="2381.5" y2="1712" gradientUnits="userSpaceOnUse" spreadMethod="reflect" id="fill1"><stop offset="0" stop-color="#1E7C0D" stop-opacity="1"/><stop offset="0.02" stop-color="#1E7C0D" stop-opacity="1"/><stop offset="1" stop-color="#5FC961" stop-opacity="1"/></linearGradient></defs><g clip-path="url(#clip0)" transform="translate(-2135 -1650)"><path d="M2199.43 1762.31C2199.43 1742.11 2215.83 1725.74 2236.07 1725.74 2278.29 1721.35 2320.76 1715.32 2362.73 1712.57 2404.71 1709.82 2481.35 1717.45 2512.41 1725.74 2532.64 1725.74 2549.05 1742.11 2549.05 1762.31 2553.96 1808.78 2562.2 1848.6 2563.79 1901.71 2565.38 1954.83 2557.61 2001.02 2549.05 2028.2 2549.05 2048.4 2532.64 2064.78 2512.41 2064.78L2373.72 2076.96C2326.89 2077.57 2264.81 2071.18 2236.07 2064.78 2215.83 2064.78 2199.43 2048.4 2199.43 2028.2 2204.97 1985.49 2218.84 1942.77 2216.06 1900.05 2213.29 1857.34 2196.09 1791.36 2199.43 1762.31Z" fill="url(#fill1)" fill-rule="evenodd"/><path d="M2259.26 1802C2292.25 1802 2319 1809.61 2319 1819 2319 1828.39 2292.25 1836 2259.26 1836 2251.01 1836 2243.15 1835.52 2236 1834.66L2219.38 1831.47 2216.56 1813.25 2215 1807.83 2217.01 1806.98C2227.82 1803.9 2242.76 1802 2259.26 1802Z" fill="#FFFFFF" fill-rule="evenodd" fill-opacity="1"/><path d="M2545.32 1857 2549.05 1875.4 2550 1889.82 2546.82 1890C2513.78 1890 2487 1882.59 2487 1873.46 2487 1866.61 2502.07 1860.73 2523.54 1858.22Z" fill="#FFFFFF" fill-rule="evenodd" fill-opacity="1"/></g></svg>