<svg width="491" height="490" xmlns="http://www.w3.org/2000/svg" xmlns:xlink="http://www.w3.org/1999/xlink" overflow="hidden"><defs><clipPath id="clip0"><rect x="2621" y="490" width="491" height="490"/></clipPath><radialGradient cx="0" cy="272496" r="385368" fy="272496" gradientUnits="userSpaceOnUse" spreadMethod="pad" id="fill1" gradientTransform="matrix(-0.000248347 0.000261854 -0.000261854 -0.000248347 3057.03 664.373)"><stop offset="0" stop-color="#A700FB" stop-opacity="1"/><stop offset="0.5" stop-color="#A700FB" stop-opacity="1"/><stop offset="0.69" stop-color="#7D1AD0" stop-opacity="1"/><stop offset="1" stop-color="#7D1AD0" stop-opacity="1"/></radialGradient><radialGradient cx="0" cy="272496" r="385368" fy="272496" gradientUnits="userSpaceOnUse" spreadMethod="pad" id="fill2" gradientTransform="matrix(-0.000248347 0.000261854 -0.000261854 -0.000248347 2817.99 664.373)"><stop offset="0" stop-color="#A700FB" stop-opacity="1"/><stop offset="0.5" stop-color="#A700FB" stop-opacity="1"/><stop offset="0.69" stop-color="#7D1AD0" stop-opacity="1"/><stop offset="1" stop-color="#7D1AD0" stop-opacity="1"/></radialGradient><radialGradient cx="0" cy="272496" r="385368" fy="272496" gradientUnits="userSpaceOnUse" spreadMethod="pad" id="fill3" gradientTransform="matrix(-0.000248347 0.000261854 -0.000261854 -0.000248347 2817.99 801.766)"><stop offset="0" stop-color="#A700FB" stop-opacity="1"/><stop offset="0.5" stop-color="#A700FB" stop-opacity="1"/><stop offset="0.69" stop-color="#7D1AD0" stop-opacity="1"/><stop offset="1" stop-color="#7D1AD0" stop-opacity="1"/></radialGradient><radialGradient cx="0" cy="272496" r="385368" fy="272496" gradientUnits="userSpaceOnUse" spreadMethod="pad" id="fill4" gradientTransform="matrix(-0.000248347 0.000261854 -0.000261854 -0.000248347 3057.03 801.766)"><stop offset="0" stop-color="#A700FB" stop-opacity="1"/><stop offset="0.5" stop-color="#A700FB" stop-opacity="1"/><stop offset="0.69" stop-color="#7D1AD0" stop-opacity="1"/><stop offset="1" stop-color="#7D1AD0" stop-opacity="1"/></radialGradient><radialGradient cx="0" cy="272496" r="385368" fy="272496" gradientUnits="userSpaceOnUse" spreadMethod="pad" id="fill5" gradientTransform="matrix(-0.000248347 0.000261854 -0.000261854 -0.000248347 2937.68 595.765)"><stop offset="0" stop-color="#A700FB" stop-opacity="1"/><stop offset="0.5" stop-color="#A700FB" stop-opacity="1"/><stop offset="0.69" stop-color="#7D1AD0" stop-opacity="1"/><stop offset="1" stop-color="#7D1AD0" stop-opacity="1"/></radialGradient><radialGradient cx="0" cy="272496" r="385368" fy="272496" gradientUnits="userSpaceOnUse" spreadMethod="pad" id="fill6" gradientTransform="matrix(-0.000248347 0.000261854 -0.000261854 -0.000248347 2937.68 733.366)"><stop offset="0" stop-color="#A700FB" stop-opacity="1"/><stop offset="0.5" stop-color="#A700FB" stop-opacity="1"/><stop offset="0.69" stop-color="#7D1AD0" stop-opacity="1"/><stop offset="1" stop-color="#7D1AD0" stop-opacity="1"/></radialGradient><radialGradient cx="0" cy="272496" r="385368" fy="272496" gradientUnits="userSpaceOnUse" spreadMethod="pad" id="fill7" gradientTransform="matrix(-0.000248347 0.000261854 -0.000261854 -0.000248347 2937.68 870.966)"><stop offset="0" stop-color="#A700FB" stop-opacity="1"/><stop offset="0.5" stop-color="#A700FB" stop-opacity="1"/><stop offset="0.69" stop-color="#7D1AD0" stop-opacity="1"/><stop offset="1" stop-color="#7D1AD0" stop-opacity="1"/></radialGradient></defs><g clip-path="url(#clip0)" transform="translate(-2621 -490)"><path d="M3053 666.478C3053 684.767 3045.58 701.324 3033.57 713.309L3032.21 714.228 3032.21 755.502 3033.57 756.421C3045.58 768.406 3053 784.963 3053 803.252 3053 839.829 3023.3 869.481 2986.67 869.481L2981.36 868.411 2930.74 893.688 2929.53 897.55C2919.47 921.321 2895.89 938 2868.42 938 2840.95 938 2817.37 921.321 2807.31 897.55L2806.1 893.688 2755.23 868.29 2749.33 869.481C2712.7 869.481 2683 839.829 2683 803.252 2683 784.963 2690.42 768.406 2702.43 756.421L2704.63 754.936 2704.63 714.794 2702.43 713.309C2690.42 701.324 2683 684.767 2683 666.478 2683 629.901 2712.7 600.249 2749.33 600.249L2755.86 601.567 2806.04 576.514 2807.31 572.449C2817.37 548.679 2840.95 532 2868.42 532 2895.89 532 2919.47 548.679 2929.53 572.449L2930.8 576.514 2980.74 601.446 2986.67 600.249C3023.3 600.249 3053 629.901 3053 666.478Z" fill="#B635FF" fill-rule="evenodd" fill-opacity="1"/><path d="M3021.36 630.536C3041.06 649.224 3041.88 680.346 3023.2 700.05 3004.51 719.754 2973.39 720.578 2953.68 701.89 2933.98 683.203 2933.16 652.08 2951.84 632.376 2970.53 612.672 3001.65 611.849 3021.36 630.536Z" fill="url(#fill1)" fill-rule="evenodd"/><path d="M2782.31 630.536C2802.02 649.224 2802.84 680.346 2784.15 700.05 2765.47 719.754 2734.34 720.578 2714.64 701.89 2694.94 683.203 2694.11 652.08 2712.8 632.376 2731.49 612.672 2762.61 611.849 2782.31 630.536Z" fill="url(#fill2)" fill-rule="evenodd"/><path d="M2782.31 767.929C2802.02 786.617 2802.84 817.739 2784.15 837.443 2765.47 857.147 2734.34 857.971 2714.64 839.283 2694.94 820.596 2694.11 789.473 2712.8 769.77 2731.49 750.066 2762.61 749.242 2782.31 767.929Z" fill="url(#fill3)" fill-rule="evenodd"/><path d="M3021.36 767.929C3041.06 786.617 3041.88 817.739 3023.2 837.443 3004.51 857.147 2973.39 857.971 2953.68 839.283 2933.98 820.596 2933.16 789.473 2951.84 769.77 2970.53 750.066 3001.65 749.242 3021.36 767.929Z" fill="url(#fill4)" fill-rule="evenodd"/><path d="M2902.01 561.929C2921.71 580.616 2922.53 611.739 2903.85 631.442 2885.16 651.146 2854.04 651.97 2834.33 633.283 2814.63 614.595 2813.8 583.473 2832.49 563.769 2851.18 544.065 2882.3 543.241 2902.01 561.929Z" fill="url(#fill5)" fill-rule="evenodd"/><path d="M2902.01 699.529C2921.71 718.216 2922.53 749.339 2903.85 769.043 2885.16 788.747 2854.04 789.57 2834.33 770.883 2814.63 752.195 2813.8 721.073 2832.49 701.369 2851.18 681.665 2882.3 680.841 2902.01 699.529Z" fill="url(#fill6)" fill-rule="evenodd"/><path d="M2902.01 837.129C2921.71 855.817 2922.53 886.939 2903.85 906.643 2885.16 926.347 2854.04 927.171 2834.33 908.483 2814.63 889.796 2813.8 858.673 2832.49 838.97 2851.18 819.266 2882.3 818.442 2902.01 837.129Z" fill="url(#fill7)" fill-rule="evenodd"/><path d="M2998.61 634.382C3003.69 639.196 3003.9 647.214 2999.09 652.291 2994.27 657.367 2986.25 657.579 2981.18 652.765 2976.1 647.95 2975.89 639.932 2980.7 634.856 2985.52 629.78 2993.54 629.568 2998.61 634.382Z" fill="#FFFFFF" fill-rule="evenodd" fill-opacity="1"/><path d="M2759.57 634.382C2764.64 639.196 2764.86 647.214 2760.04 652.291 2755.23 657.367 2747.21 657.579 2742.13 652.765 2737.06 647.95 2736.84 639.932 2741.66 634.856 2746.47 629.78 2754.49 629.568 2759.57 634.382Z" fill="#FFFFFF" fill-rule="evenodd" fill-opacity="1"/><path d="M2759.57 771.775C2764.64 776.59 2764.86 784.608 2760.04 789.684 2755.23 794.76 2747.21 794.973 2742.13 790.158 2737.06 785.344 2736.84 777.326 2741.66 772.249 2746.47 767.173 2754.49 766.961 2759.57 771.775Z" fill="#FFFFFF" fill-rule="evenodd" fill-opacity="1"/><path d="M2998.61 771.775C3003.69 776.59 3003.9 784.608 2999.09 789.684 2994.27 794.76 2986.25 794.973 2981.18 790.158 2976.1 785.344 2975.89 777.326 2980.7 772.249 2985.52 767.173 2993.54 766.961 2998.61 771.775Z" fill="#FFFFFF" fill-rule="evenodd" fill-opacity="1"/><path d="M2879.26 565.775C2884.34 570.589 2884.55 578.607 2879.73 583.683 2874.92 588.76 2866.9 588.972 2861.83 584.157 2856.75 579.343 2856.54 571.325 2861.35 566.249 2866.17 561.172 2874.18 560.96 2879.26 565.775Z" fill="#FFFFFF" fill-rule="evenodd" fill-opacity="1"/><path d="M2879.26 703.375C2884.34 708.189 2884.55 716.207 2879.73 721.284 2874.92 726.36 2866.9 726.572 2861.83 721.758 2856.75 716.943 2856.54 708.925 2861.35 703.849 2866.17 698.773 2874.18 698.56 2879.26 703.375Z" fill="#FFFFFF" fill-rule="evenodd" fill-opacity="1"/><path d="M2879.26 840.975C2884.34 845.79 2884.55 853.808 2879.73 858.884 2874.92 863.96 2866.9 864.173 2861.83 859.358 2856.75 854.544 2856.54 846.526 2861.35 841.449 2866.17 836.373 2874.18 836.161 2879.26 840.975Z" fill="#FFFFFF" fill-rule="evenodd" fill-opacity="1"/></g></svg>