<svg width="490" height="491" xmlns="http://www.w3.org/2000/svg" xmlns:xlink="http://www.w3.org/1999/xlink" overflow="hidden"><defs><clipPath id="clip0"><rect x="591" y="430" width="490" height="491"/></clipPath><linearGradient x1="933.518" y1="427.588" x2="739.617" y2="925.894" gradientUnits="userSpaceOnUse" spreadMethod="reflect" id="fill1"><stop offset="0" stop-color="#FFC000" stop-opacity="1"/><stop offset="0.47" stop-color="#F4891B" stop-opacity="1"/><stop offset="0.81" stop-color="#CB6A12" stop-opacity="1"/><stop offset="1" stop-color="#CB6A12" stop-opacity="1"/></linearGradient><linearGradient x1="884.959" y1="541.349" x2="775.695" y2="822.145" gradientUnits="userSpaceOnUse" spreadMethod="reflect" id="fill2"><stop offset="0" stop-color="#F4891B" stop-opacity="1"/><stop offset="0.61" stop-color="#F4891B" stop-opacity="1"/><stop offset="1" stop-color="#FFC000" stop-opacity="1"/></linearGradient></defs><g clip-path="url(#clip0)" transform="translate(-591 -430)"><path d="M734.276 549.234C826.609 475.161 947.256 472.2 1003.75 542.62 1060.24 613.04 1031.19 730.175 938.859 804.248 846.526 878.321 725.879 881.282 669.385 810.862 612.891 740.442 641.944 623.307 734.276 549.234Z" fill="url(#fill1)" fill-rule="evenodd"/><path d="M924.343 584.533C931.622 593.607 935.92 604.365 937.46 616.052L937.725 633.889 934.238 622.186C931.741 616.502 928.515 611.13 924.535 606.17 892.701 566.488 824.716 568.157 772.686 609.897 746.671 630.767 729.571 657.704 722.954 684.383L722.555 687.045 722.54 686.039C725.447 654.977 744.897 620.483 777.415 594.396 829.445 552.655 895.227 548.24 924.343 584.533Z" fill="#FFFFFF" fill-rule="evenodd" fill-opacity="1"/><path d="M772.686 609.897C824.715 568.156 892.7 566.488 924.535 606.17 956.369 645.851 939.998 711.857 887.968 753.597 835.939 795.338 767.953 797.006 736.119 757.324 704.285 717.643 720.656 651.637 772.686 609.897Z" fill="url(#fill2)" fill-rule="evenodd"/></g></svg>