<svg width="490" height="490" xmlns="http://www.w3.org/2000/svg" xmlns:xlink="http://www.w3.org/1999/xlink" overflow="hidden"><defs><clipPath id="clip0"><rect x="898" y="1815" width="490" height="490"/></clipPath><radialGradient cx="639636" cy="402799" r="755897" fx="639636" fy="402799" gradientUnits="userSpaceOnUse" spreadMethod="pad" id="fill1" gradientTransform="scale(0.000360892 0.000360892)"><stop offset="0" stop-color="#F00001" stop-opacity="1"/><stop offset="0.66" stop-color="#BB0400" stop-opacity="1"/><stop offset="1" stop-color="#BB0400" stop-opacity="1"/></radialGradient></defs><g clip-path="url(#clip0)" transform="translate(-898 -1815)"><path d="M453.248 127.62C420.194 84.9566 357.596 8.46002 233.473 0.496548 109.35-7.46692 46.1039 82.3468 13.6984 127.62-17.6714 171.447 11.4512 233.78 35.1507 256.477 58.8501 279.175 102.166 291.516 135.406 290.696 168.647 289.876 203.402 251.96 234.596 251.559 265.79 251.159 298.673 289.876 331.54 290.696 364.406 291.516 408.096 279.175 431.795 256.477 455.495 233.78 472.715 170.285 453.248 127.62Z" fill="url(#fill1)" fill-rule="evenodd" transform="matrix(0.769574 -0.638558 -0.638558 -0.769574 1059.76 2319.16)"/><path d="M1192.16 1912.01C1200.06 1921.54 1198.74 1935.67 1189.22 1943.57 1179.69 1951.47 1165.57 1950.16 1157.66 1940.63 1149.76 1931.11 1151.07 1916.98 1160.6 1909.08 1170.12 1901.17 1184.25 1902.49 1192.16 1912.01Z" fill="#FFFFFF" fill-rule="evenodd" fill-opacity="1"/><path d="M1009.16 2082.78C1017.07 2092.31 1015.75 2106.43 1006.23 2114.34 996.702 2122.24 982.573 2120.93 974.67 2111.4 966.767 2101.88 968.081 2087.75 977.606 2079.84 987.131 2071.94 1001.26 2073.26 1009.16 2082.78Z" fill="#FFFFFF" fill-rule="evenodd" fill-opacity="1"/></g></svg>