<svg width="491" height="490" xmlns="http://www.w3.org/2000/svg" xmlns:xlink="http://www.w3.org/1999/xlink" overflow="hidden"><defs><clipPath id="clip0"><rect x="233" y="1512" width="491" height="490"/></clipPath><radialGradient cx="485027" cy="468233" r="674160" fy="468233" gradientUnits="userSpaceOnUse" spreadMethod="pad" id="fill1" gradientTransform="matrix(0.000255189 -0.000255189 0.000255189 0.000255189 234.108 1802.06)"><stop offset="0" stop-color="#FDEE22" stop-opacity="1"/><stop offset="0.4" stop-color="#FDEE22" stop-opacity="1"/><stop offset="0.73" stop-color="#FCD821" stop-opacity="1"/><stop offset="1" stop-color="#FCD821" stop-opacity="1"/></radialGradient></defs><g clip-path="url(#clip0)" transform="translate(-233 -1512)"><path d="M359.13 1927.09C296.194 1864.15 297.998 1760.31 363.158 1695.15 404.457 1653.85 450.989 1566.35 481.342 1565.54 511.695 1564.72 555.204 1651.23 595.094 1691.12 658.03 1754.06 656.226 1857.9 591.066 1923.06 525.906 1988.22 422.065 1990.02 359.13 1927.09L359.13 1927.09Z" fill="url(#fill1)" fill-rule="evenodd"/><path d="M373.736 1772.77C366.35 1767.86 378.605 1736.41 401.109 1702.52 423.612 1668.63 447.843 1645.12 455.229 1650.03 462.615 1654.93 450.36 1686.38 427.857 1720.28 405.353 1754.17 381.123 1777.67 373.736 1772.77Z" fill="#FFFFFF" fill-rule="evenodd" fill-opacity="1"/></g></svg>